<mxfile host="app.diagrams.net" modified="2024-06-02T10:09:10.056Z" agent="Mozilla/5.0 (Macintosh; Intel Mac OS X 10_15_7) AppleWebKit/537.36 (KHTML, like Gecko) Chrome/125.0.0.0 Safari/537.36" etag="cL7J8VRBzHXdD2gEBwDa" version="24.4.13" type="github" pages="2">
  <diagram name="第 1 页" id="ApZK8VF58iXm6ArmJUGz">
    <mxGraphModel dx="2123" dy="606" grid="1" gridSize="10" guides="1" tooltips="1" connect="1" arrows="1" fold="1" page="1" pageScale="1" pageWidth="1169" pageHeight="827" math="0" shadow="0">
      <root>
        <mxCell id="0" />
        <mxCell id="1" parent="0" />
        <mxCell id="4__FJ9t6rzihJ2tdzVsf-2" value="1" style="rounded=0;whiteSpace=wrap;html=1;" parent="1" vertex="1">
          <mxGeometry x="20" y="60" width="20" height="20" as="geometry" />
        </mxCell>
        <mxCell id="4__FJ9t6rzihJ2tdzVsf-3" value="2" style="rounded=0;whiteSpace=wrap;html=1;" parent="1" vertex="1">
          <mxGeometry x="50" y="60" width="20" height="20" as="geometry" />
        </mxCell>
        <mxCell id="4__FJ9t6rzihJ2tdzVsf-4" value="3" style="rounded=0;whiteSpace=wrap;html=1;" parent="1" vertex="1">
          <mxGeometry x="80" y="60" width="20" height="20" as="geometry" />
        </mxCell>
        <mxCell id="4__FJ9t6rzihJ2tdzVsf-5" value="7" style="rounded=0;whiteSpace=wrap;html=1;" parent="1" vertex="1">
          <mxGeometry x="20" y="120" width="20" height="20" as="geometry" />
        </mxCell>
        <mxCell id="4__FJ9t6rzihJ2tdzVsf-6" value="8" style="rounded=0;whiteSpace=wrap;html=1;" parent="1" vertex="1">
          <mxGeometry x="20" y="90" width="20" height="20" as="geometry" />
        </mxCell>
        <mxCell id="4__FJ9t6rzihJ2tdzVsf-7" value="6" style="rounded=0;whiteSpace=wrap;html=1;" parent="1" vertex="1">
          <mxGeometry x="50" y="120" width="20" height="20" as="geometry" />
        </mxCell>
        <mxCell id="4__FJ9t6rzihJ2tdzVsf-8" value="4" style="rounded=0;whiteSpace=wrap;html=1;" parent="1" vertex="1">
          <mxGeometry x="50" y="90" width="20" height="20" as="geometry" />
        </mxCell>
        <mxCell id="4__FJ9t6rzihJ2tdzVsf-9" value="5" style="rounded=0;whiteSpace=wrap;html=1;" parent="1" vertex="1">
          <mxGeometry x="80" y="90" width="20" height="20" as="geometry" />
        </mxCell>
        <mxCell id="4__FJ9t6rzihJ2tdzVsf-10" value="0" style="rounded=0;whiteSpace=wrap;html=1;" parent="1" vertex="1">
          <mxGeometry x="80" y="120" width="20" height="20" as="geometry" />
        </mxCell>
        <mxCell id="4__FJ9t6rzihJ2tdzVsf-11" value="1" style="rounded=0;whiteSpace=wrap;html=1;" parent="1" vertex="1">
          <mxGeometry x="450" y="50" width="20" height="20" as="geometry" />
        </mxCell>
        <mxCell id="4__FJ9t6rzihJ2tdzVsf-12" value="2" style="rounded=0;whiteSpace=wrap;html=1;" parent="1" vertex="1">
          <mxGeometry x="480" y="50" width="20" height="20" as="geometry" />
        </mxCell>
        <mxCell id="4__FJ9t6rzihJ2tdzVsf-13" value="3" style="rounded=0;whiteSpace=wrap;html=1;" parent="1" vertex="1">
          <mxGeometry x="510" y="50" width="20" height="20" as="geometry" />
        </mxCell>
        <mxCell id="4__FJ9t6rzihJ2tdzVsf-14" value="7" style="rounded=0;whiteSpace=wrap;html=1;" parent="1" vertex="1">
          <mxGeometry x="450" y="110" width="20" height="20" as="geometry" />
        </mxCell>
        <mxCell id="4__FJ9t6rzihJ2tdzVsf-15" value="8" style="rounded=0;whiteSpace=wrap;html=1;" parent="1" vertex="1">
          <mxGeometry x="450" y="80" width="20" height="20" as="geometry" />
        </mxCell>
        <mxCell id="4__FJ9t6rzihJ2tdzVsf-16" value="6" style="rounded=0;whiteSpace=wrap;html=1;" parent="1" vertex="1">
          <mxGeometry x="480" y="110" width="20" height="20" as="geometry" />
        </mxCell>
        <mxCell id="4__FJ9t6rzihJ2tdzVsf-17" value="4" style="rounded=0;whiteSpace=wrap;html=1;" parent="1" vertex="1">
          <mxGeometry x="510" y="80" width="20" height="20" as="geometry" />
        </mxCell>
        <mxCell id="4__FJ9t6rzihJ2tdzVsf-18" value="5" style="rounded=0;whiteSpace=wrap;html=1;" parent="1" vertex="1">
          <mxGeometry x="510" y="110" width="20" height="20" as="geometry" />
        </mxCell>
        <mxCell id="4__FJ9t6rzihJ2tdzVsf-19" value="0" style="rounded=0;whiteSpace=wrap;html=1;" parent="1" vertex="1">
          <mxGeometry x="480" y="80" width="20" height="20" as="geometry" />
        </mxCell>
        <mxCell id="4__FJ9t6rzihJ2tdzVsf-20" value="target" style="text;html=1;align=center;verticalAlign=middle;resizable=0;points=[];autosize=1;strokeColor=none;fillColor=none;" parent="1" vertex="1">
          <mxGeometry x="400" y="55" width="50" height="30" as="geometry" />
        </mxCell>
        <mxCell id="4__FJ9t6rzihJ2tdzVsf-21" value="" style="rounded=1;whiteSpace=wrap;html=1;fillColor=none;" parent="1" vertex="1">
          <mxGeometry x="-10" y="170" width="1150" height="140" as="geometry" />
        </mxCell>
        <mxCell id="4__FJ9t6rzihJ2tdzVsf-22" value="init" style="text;html=1;align=center;verticalAlign=middle;resizable=0;points=[];autosize=1;strokeColor=none;fillColor=none;" parent="1" vertex="1">
          <mxGeometry x="20" y="30" width="40" height="30" as="geometry" />
        </mxCell>
        <mxCell id="4__FJ9t6rzihJ2tdzVsf-23" value="open" style="text;html=1;align=center;verticalAlign=middle;resizable=0;points=[];autosize=1;strokeColor=none;fillColor=none;" parent="1" vertex="1">
          <mxGeometry x="20" y="170" width="50" height="30" as="geometry" />
        </mxCell>
        <mxCell id="4__FJ9t6rzihJ2tdzVsf-24" value="1" style="rounded=0;whiteSpace=wrap;html=1;" parent="1" vertex="1">
          <mxGeometry x="20" y="484" width="20" height="20" as="geometry" />
        </mxCell>
        <mxCell id="4__FJ9t6rzihJ2tdzVsf-25" value="2" style="rounded=0;whiteSpace=wrap;html=1;" parent="1" vertex="1">
          <mxGeometry x="50" y="484" width="20" height="20" as="geometry" />
        </mxCell>
        <mxCell id="4__FJ9t6rzihJ2tdzVsf-26" value="3" style="rounded=0;whiteSpace=wrap;html=1;" parent="1" vertex="1">
          <mxGeometry x="80" y="484" width="20" height="20" as="geometry" />
        </mxCell>
        <mxCell id="4__FJ9t6rzihJ2tdzVsf-27" value="7" style="rounded=0;whiteSpace=wrap;html=1;" parent="1" vertex="1">
          <mxGeometry x="20" y="544" width="20" height="20" as="geometry" />
        </mxCell>
        <mxCell id="4__FJ9t6rzihJ2tdzVsf-28" value="8" style="rounded=0;whiteSpace=wrap;html=1;" parent="1" vertex="1">
          <mxGeometry x="20" y="514" width="20" height="20" as="geometry" />
        </mxCell>
        <mxCell id="4__FJ9t6rzihJ2tdzVsf-29" value="6" style="rounded=0;whiteSpace=wrap;html=1;" parent="1" vertex="1">
          <mxGeometry x="50" y="544" width="20" height="20" as="geometry" />
        </mxCell>
        <mxCell id="4__FJ9t6rzihJ2tdzVsf-30" value="4" style="rounded=0;whiteSpace=wrap;html=1;" parent="1" vertex="1">
          <mxGeometry x="50" y="514" width="20" height="20" as="geometry" />
        </mxCell>
        <mxCell id="4__FJ9t6rzihJ2tdzVsf-31" value="5" style="rounded=0;whiteSpace=wrap;html=1;" parent="1" vertex="1">
          <mxGeometry x="80" y="514" width="20" height="20" as="geometry" />
        </mxCell>
        <mxCell id="4__FJ9t6rzihJ2tdzVsf-32" value="0" style="rounded=0;whiteSpace=wrap;html=1;" parent="1" vertex="1">
          <mxGeometry x="80" y="544" width="20" height="20" as="geometry" />
        </mxCell>
        <mxCell id="4__FJ9t6rzihJ2tdzVsf-35" value="" style="endArrow=classic;html=1;rounded=0;" parent="1" edge="1">
          <mxGeometry width="50" height="50" relative="1" as="geometry">
            <mxPoint x="110" y="497" as="sourcePoint" />
            <mxPoint x="150" y="484" as="targetPoint" />
          </mxGeometry>
        </mxCell>
        <mxCell id="4__FJ9t6rzihJ2tdzVsf-36" value="" style="endArrow=classic;html=1;rounded=0;" parent="1" edge="1">
          <mxGeometry width="50" height="50" relative="1" as="geometry">
            <mxPoint x="110" y="557" as="sourcePoint" />
            <mxPoint x="150" y="564" as="targetPoint" />
          </mxGeometry>
        </mxCell>
        <mxCell id="4__FJ9t6rzihJ2tdzVsf-37" value="1" style="rounded=0;whiteSpace=wrap;html=1;" parent="1" vertex="1">
          <mxGeometry x="170" y="444" width="20" height="20" as="geometry" />
        </mxCell>
        <mxCell id="4__FJ9t6rzihJ2tdzVsf-38" value="2" style="rounded=0;whiteSpace=wrap;html=1;" parent="1" vertex="1">
          <mxGeometry x="200" y="444" width="20" height="20" as="geometry" />
        </mxCell>
        <mxCell id="4__FJ9t6rzihJ2tdzVsf-39" value="3" style="rounded=0;whiteSpace=wrap;html=1;" parent="1" vertex="1">
          <mxGeometry x="230" y="444" width="20" height="20" as="geometry" />
        </mxCell>
        <mxCell id="4__FJ9t6rzihJ2tdzVsf-40" value="7" style="rounded=0;whiteSpace=wrap;html=1;" parent="1" vertex="1">
          <mxGeometry x="170" y="504" width="20" height="20" as="geometry" />
        </mxCell>
        <mxCell id="4__FJ9t6rzihJ2tdzVsf-41" value="8" style="rounded=0;whiteSpace=wrap;html=1;" parent="1" vertex="1">
          <mxGeometry x="170" y="474" width="20" height="20" as="geometry" />
        </mxCell>
        <mxCell id="4__FJ9t6rzihJ2tdzVsf-42" value="6" style="rounded=0;whiteSpace=wrap;html=1;" parent="1" vertex="1">
          <mxGeometry x="200" y="504" width="20" height="20" as="geometry" />
        </mxCell>
        <mxCell id="4__FJ9t6rzihJ2tdzVsf-43" value="4" style="rounded=0;whiteSpace=wrap;html=1;" parent="1" vertex="1">
          <mxGeometry x="200" y="474" width="20" height="20" as="geometry" />
        </mxCell>
        <mxCell id="4__FJ9t6rzihJ2tdzVsf-44" value="5" style="rounded=0;whiteSpace=wrap;html=1;" parent="1" vertex="1">
          <mxGeometry x="230" y="504" width="20" height="20" as="geometry" />
        </mxCell>
        <mxCell id="4__FJ9t6rzihJ2tdzVsf-45" value="0" style="rounded=0;whiteSpace=wrap;html=1;" parent="1" vertex="1">
          <mxGeometry x="230" y="474" width="20" height="20" as="geometry" />
        </mxCell>
        <mxCell id="4__FJ9t6rzihJ2tdzVsf-46" value="up&lt;br&gt;" style="text;html=1;align=center;verticalAlign=middle;resizable=0;points=[];autosize=1;strokeColor=none;fillColor=none;" parent="1" vertex="1">
          <mxGeometry x="110" y="459" width="40" height="30" as="geometry" />
        </mxCell>
        <mxCell id="4__FJ9t6rzihJ2tdzVsf-47" value="left" style="text;html=1;align=center;verticalAlign=middle;resizable=0;points=[];autosize=1;strokeColor=none;fillColor=none;" parent="1" vertex="1">
          <mxGeometry x="110" y="559" width="40" height="30" as="geometry" />
        </mxCell>
        <mxCell id="4__FJ9t6rzihJ2tdzVsf-48" value="1" style="rounded=0;whiteSpace=wrap;html=1;" parent="1" vertex="1">
          <mxGeometry x="170" y="544" width="20" height="20" as="geometry" />
        </mxCell>
        <mxCell id="4__FJ9t6rzihJ2tdzVsf-49" value="2" style="rounded=0;whiteSpace=wrap;html=1;" parent="1" vertex="1">
          <mxGeometry x="200" y="544" width="20" height="20" as="geometry" />
        </mxCell>
        <mxCell id="4__FJ9t6rzihJ2tdzVsf-50" value="3" style="rounded=0;whiteSpace=wrap;html=1;" parent="1" vertex="1">
          <mxGeometry x="230" y="544" width="20" height="20" as="geometry" />
        </mxCell>
        <mxCell id="4__FJ9t6rzihJ2tdzVsf-51" value="7" style="rounded=0;whiteSpace=wrap;html=1;" parent="1" vertex="1">
          <mxGeometry x="170" y="604" width="20" height="20" as="geometry" />
        </mxCell>
        <mxCell id="4__FJ9t6rzihJ2tdzVsf-52" value="8" style="rounded=0;whiteSpace=wrap;html=1;" parent="1" vertex="1">
          <mxGeometry x="170" y="574" width="20" height="20" as="geometry" />
        </mxCell>
        <mxCell id="4__FJ9t6rzihJ2tdzVsf-53" value="6" style="rounded=0;whiteSpace=wrap;html=1;" parent="1" vertex="1">
          <mxGeometry x="230" y="604" width="20" height="20" as="geometry" />
        </mxCell>
        <mxCell id="4__FJ9t6rzihJ2tdzVsf-54" value="4" style="rounded=0;whiteSpace=wrap;html=1;" parent="1" vertex="1">
          <mxGeometry x="200" y="574" width="20" height="20" as="geometry" />
        </mxCell>
        <mxCell id="4__FJ9t6rzihJ2tdzVsf-55" value="5" style="rounded=0;whiteSpace=wrap;html=1;" parent="1" vertex="1">
          <mxGeometry x="230" y="574" width="20" height="20" as="geometry" />
        </mxCell>
        <mxCell id="4__FJ9t6rzihJ2tdzVsf-56" value="0" style="rounded=0;whiteSpace=wrap;html=1;" parent="1" vertex="1">
          <mxGeometry x="200" y="604" width="20" height="20" as="geometry" />
        </mxCell>
        <mxCell id="4__FJ9t6rzihJ2tdzVsf-57" value="0" style="text;html=1;align=center;verticalAlign=middle;resizable=0;points=[];autosize=1;strokeColor=none;fillColor=none;" parent="1" vertex="1">
          <mxGeometry x="40" y="654" width="30" height="30" as="geometry" />
        </mxCell>
        <mxCell id="4__FJ9t6rzihJ2tdzVsf-59" value="1" style="text;html=1;align=center;verticalAlign=middle;resizable=0;points=[];autosize=1;strokeColor=none;fillColor=none;" parent="1" vertex="1">
          <mxGeometry x="195" y="654" width="30" height="30" as="geometry" />
        </mxCell>
        <mxCell id="4__FJ9t6rzihJ2tdzVsf-60" value="f = 1+ 1 =2" style="text;html=1;align=center;verticalAlign=middle;resizable=0;points=[];autosize=1;strokeColor=none;fillColor=none;" parent="1" vertex="1">
          <mxGeometry x="250" y="469" width="80" height="30" as="geometry" />
        </mxCell>
        <mxCell id="4__FJ9t6rzihJ2tdzVsf-62" value="f=1+3 =4" style="text;html=1;align=center;verticalAlign=middle;resizable=0;points=[];autosize=1;strokeColor=none;fillColor=none;" parent="1" vertex="1">
          <mxGeometry x="255" y="569" width="70" height="30" as="geometry" />
        </mxCell>
        <mxCell id="OG6SdoEYKuRAlOga93gB-11" value="1" style="rounded=0;whiteSpace=wrap;html=1;" parent="1" vertex="1">
          <mxGeometry x="200" y="220" width="20" height="20" as="geometry" />
        </mxCell>
        <mxCell id="OG6SdoEYKuRAlOga93gB-12" value="2" style="rounded=0;whiteSpace=wrap;html=1;" parent="1" vertex="1">
          <mxGeometry x="230" y="220" width="20" height="20" as="geometry" />
        </mxCell>
        <mxCell id="OG6SdoEYKuRAlOga93gB-13" value="3" style="rounded=0;whiteSpace=wrap;html=1;" parent="1" vertex="1">
          <mxGeometry x="260" y="220" width="20" height="20" as="geometry" />
        </mxCell>
        <mxCell id="OG6SdoEYKuRAlOga93gB-14" value="7" style="rounded=0;whiteSpace=wrap;html=1;" parent="1" vertex="1">
          <mxGeometry x="200" y="280" width="20" height="20" as="geometry" />
        </mxCell>
        <mxCell id="OG6SdoEYKuRAlOga93gB-15" value="8" style="rounded=0;whiteSpace=wrap;html=1;" parent="1" vertex="1">
          <mxGeometry x="200" y="250" width="20" height="20" as="geometry" />
        </mxCell>
        <mxCell id="OG6SdoEYKuRAlOga93gB-16" value="6" style="rounded=0;whiteSpace=wrap;html=1;" parent="1" vertex="1">
          <mxGeometry x="260" y="280" width="20" height="20" as="geometry" />
        </mxCell>
        <mxCell id="OG6SdoEYKuRAlOga93gB-17" value="4" style="rounded=0;whiteSpace=wrap;html=1;" parent="1" vertex="1">
          <mxGeometry x="230" y="250" width="20" height="20" as="geometry" />
        </mxCell>
        <mxCell id="OG6SdoEYKuRAlOga93gB-18" value="5" style="rounded=0;whiteSpace=wrap;html=1;" parent="1" vertex="1">
          <mxGeometry x="260" y="250" width="20" height="20" as="geometry" />
        </mxCell>
        <mxCell id="OG6SdoEYKuRAlOga93gB-19" value="0" style="rounded=0;whiteSpace=wrap;html=1;" parent="1" vertex="1">
          <mxGeometry x="230" y="280" width="20" height="20" as="geometry" />
        </mxCell>
        <mxCell id="OG6SdoEYKuRAlOga93gB-20" value="f=1+3 =4" style="text;html=1;align=center;verticalAlign=middle;resizable=0;points=[];autosize=1;strokeColor=none;fillColor=none;" parent="1" vertex="1">
          <mxGeometry x="285" y="245" width="70" height="30" as="geometry" />
        </mxCell>
        <mxCell id="OG6SdoEYKuRAlOga93gB-23" value="" style="endArrow=classic;html=1;rounded=0;" parent="1" edge="1">
          <mxGeometry width="50" height="50" relative="1" as="geometry">
            <mxPoint x="325" y="457" as="sourcePoint" />
            <mxPoint x="360" y="380" as="targetPoint" />
          </mxGeometry>
        </mxCell>
        <mxCell id="OG6SdoEYKuRAlOga93gB-24" value="up" style="text;html=1;align=center;verticalAlign=middle;resizable=0;points=[];autosize=1;strokeColor=none;fillColor=none;" parent="1" vertex="1">
          <mxGeometry x="300" y="399" width="40" height="30" as="geometry" />
        </mxCell>
        <mxCell id="OG6SdoEYKuRAlOga93gB-25" value="1" style="rounded=0;whiteSpace=wrap;html=1;" parent="1" vertex="1">
          <mxGeometry x="405" y="349" width="20" height="20" as="geometry" />
        </mxCell>
        <mxCell id="OG6SdoEYKuRAlOga93gB-26" value="2" style="rounded=0;whiteSpace=wrap;html=1;" parent="1" vertex="1">
          <mxGeometry x="435" y="349" width="20" height="20" as="geometry" />
        </mxCell>
        <mxCell id="OG6SdoEYKuRAlOga93gB-27" value="3" style="rounded=0;whiteSpace=wrap;html=1;" parent="1" vertex="1">
          <mxGeometry x="465" y="379" width="20" height="20" as="geometry" />
        </mxCell>
        <mxCell id="OG6SdoEYKuRAlOga93gB-28" value="7" style="rounded=0;whiteSpace=wrap;html=1;" parent="1" vertex="1">
          <mxGeometry x="405" y="409" width="20" height="20" as="geometry" />
        </mxCell>
        <mxCell id="OG6SdoEYKuRAlOga93gB-29" value="8" style="rounded=0;whiteSpace=wrap;html=1;" parent="1" vertex="1">
          <mxGeometry x="405" y="379" width="20" height="20" as="geometry" />
        </mxCell>
        <mxCell id="OG6SdoEYKuRAlOga93gB-30" value="6" style="rounded=0;whiteSpace=wrap;html=1;" parent="1" vertex="1">
          <mxGeometry x="435" y="409" width="20" height="20" as="geometry" />
        </mxCell>
        <mxCell id="OG6SdoEYKuRAlOga93gB-31" value="4" style="rounded=0;whiteSpace=wrap;html=1;" parent="1" vertex="1">
          <mxGeometry x="435" y="379" width="20" height="20" as="geometry" />
        </mxCell>
        <mxCell id="OG6SdoEYKuRAlOga93gB-32" value="5" style="rounded=0;whiteSpace=wrap;html=1;" parent="1" vertex="1">
          <mxGeometry x="465" y="409" width="20" height="20" as="geometry" />
        </mxCell>
        <mxCell id="OG6SdoEYKuRAlOga93gB-33" value="0" style="rounded=0;whiteSpace=wrap;html=1;" parent="1" vertex="1">
          <mxGeometry x="465" y="349" width="20" height="20" as="geometry" />
        </mxCell>
        <mxCell id="OG6SdoEYKuRAlOga93gB-34" value="f= 2+2=4" style="text;html=1;align=center;verticalAlign=middle;resizable=0;points=[];autosize=1;strokeColor=none;fillColor=none;" parent="1" vertex="1">
          <mxGeometry x="485" y="369" width="70" height="30" as="geometry" />
        </mxCell>
        <mxCell id="OG6SdoEYKuRAlOga93gB-45" value="1" style="rounded=0;whiteSpace=wrap;html=1;" parent="1" vertex="1">
          <mxGeometry x="410" y="444" width="20" height="20" as="geometry" />
        </mxCell>
        <mxCell id="OG6SdoEYKuRAlOga93gB-46" value="2" style="rounded=0;whiteSpace=wrap;html=1;" parent="1" vertex="1">
          <mxGeometry x="440" y="444" width="20" height="20" as="geometry" />
        </mxCell>
        <mxCell id="OG6SdoEYKuRAlOga93gB-47" value="3" style="rounded=0;whiteSpace=wrap;html=1;" parent="1" vertex="1">
          <mxGeometry x="470" y="444" width="20" height="20" as="geometry" />
        </mxCell>
        <mxCell id="OG6SdoEYKuRAlOga93gB-48" value="7" style="rounded=0;whiteSpace=wrap;html=1;" parent="1" vertex="1">
          <mxGeometry x="410" y="504" width="20" height="20" as="geometry" />
        </mxCell>
        <mxCell id="OG6SdoEYKuRAlOga93gB-49" value="8" style="rounded=0;whiteSpace=wrap;html=1;" parent="1" vertex="1">
          <mxGeometry x="410" y="474" width="20" height="20" as="geometry" />
        </mxCell>
        <mxCell id="OG6SdoEYKuRAlOga93gB-50" value="6" style="rounded=0;whiteSpace=wrap;html=1;" parent="1" vertex="1">
          <mxGeometry x="440" y="504" width="20" height="20" as="geometry" />
        </mxCell>
        <mxCell id="OG6SdoEYKuRAlOga93gB-51" value="4" style="rounded=0;whiteSpace=wrap;html=1;" parent="1" vertex="1">
          <mxGeometry x="470" y="474" width="20" height="20" as="geometry" />
        </mxCell>
        <mxCell id="OG6SdoEYKuRAlOga93gB-52" value="5" style="rounded=0;whiteSpace=wrap;html=1;" parent="1" vertex="1">
          <mxGeometry x="470" y="504" width="20" height="20" as="geometry" />
        </mxCell>
        <mxCell id="OG6SdoEYKuRAlOga93gB-53" value="0" style="rounded=0;whiteSpace=wrap;html=1;" parent="1" vertex="1">
          <mxGeometry x="440" y="474" width="20" height="20" as="geometry" />
        </mxCell>
        <mxCell id="OG6SdoEYKuRAlOga93gB-54" value="f= 0+2=2" style="text;html=1;align=center;verticalAlign=middle;resizable=0;points=[];autosize=1;strokeColor=none;fillColor=none;" parent="1" vertex="1">
          <mxGeometry x="490" y="464" width="70" height="30" as="geometry" />
        </mxCell>
        <mxCell id="OG6SdoEYKuRAlOga93gB-56" value="2&lt;br&gt;" style="text;html=1;align=center;verticalAlign=middle;resizable=0;points=[];autosize=1;strokeColor=none;fillColor=none;" parent="1" vertex="1">
          <mxGeometry x="445" y="670" width="30" height="30" as="geometry" />
        </mxCell>
        <mxCell id="OG6SdoEYKuRAlOga93gB-57" value="1" style="rounded=0;whiteSpace=wrap;html=1;" parent="1" vertex="1">
          <mxGeometry x="375" y="220" width="20" height="20" as="geometry" />
        </mxCell>
        <mxCell id="OG6SdoEYKuRAlOga93gB-58" value="2" style="rounded=0;whiteSpace=wrap;html=1;" parent="1" vertex="1">
          <mxGeometry x="405" y="220" width="20" height="20" as="geometry" />
        </mxCell>
        <mxCell id="OG6SdoEYKuRAlOga93gB-59" value="3" style="rounded=0;whiteSpace=wrap;html=1;" parent="1" vertex="1">
          <mxGeometry x="435" y="250" width="20" height="20" as="geometry" />
        </mxCell>
        <mxCell id="OG6SdoEYKuRAlOga93gB-60" value="7" style="rounded=0;whiteSpace=wrap;html=1;" parent="1" vertex="1">
          <mxGeometry x="375" y="280" width="20" height="20" as="geometry" />
        </mxCell>
        <mxCell id="OG6SdoEYKuRAlOga93gB-61" value="8" style="rounded=0;whiteSpace=wrap;html=1;" parent="1" vertex="1">
          <mxGeometry x="375" y="250" width="20" height="20" as="geometry" />
        </mxCell>
        <mxCell id="OG6SdoEYKuRAlOga93gB-62" value="6" style="rounded=0;whiteSpace=wrap;html=1;" parent="1" vertex="1">
          <mxGeometry x="405" y="280" width="20" height="20" as="geometry" />
        </mxCell>
        <mxCell id="OG6SdoEYKuRAlOga93gB-63" value="4" style="rounded=0;whiteSpace=wrap;html=1;" parent="1" vertex="1">
          <mxGeometry x="405" y="250" width="20" height="20" as="geometry" />
        </mxCell>
        <mxCell id="OG6SdoEYKuRAlOga93gB-64" value="5" style="rounded=0;whiteSpace=wrap;html=1;" parent="1" vertex="1">
          <mxGeometry x="435" y="280" width="20" height="20" as="geometry" />
        </mxCell>
        <mxCell id="OG6SdoEYKuRAlOga93gB-65" value="0" style="rounded=0;whiteSpace=wrap;html=1;" parent="1" vertex="1">
          <mxGeometry x="435" y="220" width="20" height="20" as="geometry" />
        </mxCell>
        <mxCell id="OG6SdoEYKuRAlOga93gB-66" value="f= 2+2=4" style="text;html=1;align=center;verticalAlign=middle;resizable=0;points=[];autosize=1;strokeColor=none;fillColor=none;" parent="1" vertex="1">
          <mxGeometry x="455" y="240" width="70" height="30" as="geometry" />
        </mxCell>
        <mxCell id="OG6SdoEYKuRAlOga93gB-67" value="1" style="rounded=0;whiteSpace=wrap;html=1;" parent="1" vertex="1">
          <mxGeometry x="540" y="200" width="20" height="20" as="geometry" />
        </mxCell>
        <mxCell id="OG6SdoEYKuRAlOga93gB-68" value="2" style="rounded=0;whiteSpace=wrap;html=1;" parent="1" vertex="1">
          <mxGeometry x="570" y="200" width="20" height="20" as="geometry" />
        </mxCell>
        <mxCell id="OG6SdoEYKuRAlOga93gB-69" value="3" style="rounded=0;whiteSpace=wrap;html=1;" parent="1" vertex="1">
          <mxGeometry x="600" y="200" width="20" height="20" as="geometry" />
        </mxCell>
        <mxCell id="OG6SdoEYKuRAlOga93gB-70" value="7" style="rounded=0;whiteSpace=wrap;html=1;" parent="1" vertex="1">
          <mxGeometry x="540" y="260" width="20" height="20" as="geometry" />
        </mxCell>
        <mxCell id="OG6SdoEYKuRAlOga93gB-71" value="8" style="rounded=0;whiteSpace=wrap;html=1;" parent="1" vertex="1">
          <mxGeometry x="540" y="230" width="20" height="20" as="geometry" />
        </mxCell>
        <mxCell id="OG6SdoEYKuRAlOga93gB-72" value="6" style="rounded=0;whiteSpace=wrap;html=1;" parent="1" vertex="1">
          <mxGeometry x="570" y="260" width="20" height="20" as="geometry" />
        </mxCell>
        <mxCell id="OG6SdoEYKuRAlOga93gB-73" value="4" style="rounded=0;whiteSpace=wrap;html=1;" parent="1" vertex="1">
          <mxGeometry x="600" y="230" width="20" height="20" as="geometry" />
        </mxCell>
        <mxCell id="OG6SdoEYKuRAlOga93gB-74" value="5" style="rounded=0;whiteSpace=wrap;html=1;" parent="1" vertex="1">
          <mxGeometry x="600" y="260" width="20" height="20" as="geometry" />
        </mxCell>
        <mxCell id="OG6SdoEYKuRAlOga93gB-75" value="0" style="rounded=0;whiteSpace=wrap;html=1;" parent="1" vertex="1">
          <mxGeometry x="570" y="230" width="20" height="20" as="geometry" />
        </mxCell>
        <mxCell id="OG6SdoEYKuRAlOga93gB-76" value="f= 0+2=2" style="text;html=1;align=center;verticalAlign=middle;resizable=0;points=[];autosize=1;strokeColor=none;fillColor=none;" parent="1" vertex="1">
          <mxGeometry x="620" y="220" width="70" height="30" as="geometry" />
        </mxCell>
      </root>
    </mxGraphModel>
  </diagram>
  <diagram id="0RU-jBULroixJHmoJsFb" name="第 2 页">
    <mxGraphModel dx="1272" dy="808" grid="0" gridSize="10" guides="1" tooltips="1" connect="1" arrows="1" fold="1" page="1" pageScale="1" pageWidth="1169" pageHeight="827" math="0" shadow="0">
      <root>
        <mxCell id="0" />
        <mxCell id="1" parent="0" />
        <mxCell id="EawuYjx1w54RUcKtx6Do-5" style="edgeStyle=orthogonalEdgeStyle;rounded=0;orthogonalLoop=1;jettySize=auto;html=1;entryX=0.5;entryY=0;entryDx=0;entryDy=0;" edge="1" parent="1" target="16HrUeYN3CQHbp1O-pJu-2">
          <mxGeometry relative="1" as="geometry">
            <mxPoint x="481" y="123" as="sourcePoint" />
            <mxPoint x="221" y="189" as="targetPoint" />
            <Array as="points">
              <mxPoint x="481" y="121" />
              <mxPoint x="236" y="121" />
            </Array>
          </mxGeometry>
        </mxCell>
        <mxCell id="EawuYjx1w54RUcKtx6Do-6" style="edgeStyle=orthogonalEdgeStyle;rounded=0;orthogonalLoop=1;jettySize=auto;html=1;entryX=0.5;entryY=0;entryDx=0;entryDy=0;" edge="1" parent="1" source="16HrUeYN3CQHbp1O-pJu-1" target="16HrUeYN3CQHbp1O-pJu-4">
          <mxGeometry relative="1" as="geometry">
            <Array as="points">
              <mxPoint x="481" y="120" />
              <mxPoint x="726" y="120" />
            </Array>
          </mxGeometry>
        </mxCell>
        <mxCell id="16HrUeYN3CQHbp1O-pJu-1" value="&lt;font style=&quot;font-size: 18px;&quot;&gt;企业BBS系统&lt;/font&gt;" style="rounded=0;whiteSpace=wrap;html=1;" parent="1" vertex="1">
          <mxGeometry x="421" y="29" width="120" height="52" as="geometry" />
        </mxCell>
        <mxCell id="EawuYjx1w54RUcKtx6Do-11" style="edgeStyle=orthogonalEdgeStyle;rounded=0;orthogonalLoop=1;jettySize=auto;html=1;entryX=0.5;entryY=0;entryDx=0;entryDy=0;" edge="1" parent="1" source="16HrUeYN3CQHbp1O-pJu-2" target="EawuYjx1w54RUcKtx6Do-7">
          <mxGeometry relative="1" as="geometry" />
        </mxCell>
        <mxCell id="EawuYjx1w54RUcKtx6Do-12" style="edgeStyle=orthogonalEdgeStyle;rounded=0;orthogonalLoop=1;jettySize=auto;html=1;entryX=0.5;entryY=0;entryDx=0;entryDy=0;" edge="1" parent="1" source="16HrUeYN3CQHbp1O-pJu-2" target="EawuYjx1w54RUcKtx6Do-9">
          <mxGeometry relative="1" as="geometry" />
        </mxCell>
        <mxCell id="EawuYjx1w54RUcKtx6Do-13" style="edgeStyle=orthogonalEdgeStyle;rounded=0;orthogonalLoop=1;jettySize=auto;html=1;entryX=0.5;entryY=0;entryDx=0;entryDy=0;" edge="1" parent="1" source="16HrUeYN3CQHbp1O-pJu-2" target="EawuYjx1w54RUcKtx6Do-10">
          <mxGeometry relative="1" as="geometry" />
        </mxCell>
        <mxCell id="16HrUeYN3CQHbp1O-pJu-2" value="&lt;font style=&quot;font-size: 18px;&quot;&gt;登录注册子系统&lt;/font&gt;" style="rounded=0;whiteSpace=wrap;html=1;" parent="1" vertex="1">
          <mxGeometry x="143" y="182" width="186" height="45" as="geometry" />
        </mxCell>
        <mxCell id="EawuYjx1w54RUcKtx6Do-20" style="edgeStyle=orthogonalEdgeStyle;rounded=0;orthogonalLoop=1;jettySize=auto;html=1;entryX=0.5;entryY=0;entryDx=0;entryDy=0;" edge="1" parent="1" source="16HrUeYN3CQHbp1O-pJu-3" target="EawuYjx1w54RUcKtx6Do-16">
          <mxGeometry relative="1" as="geometry" />
        </mxCell>
        <mxCell id="EawuYjx1w54RUcKtx6Do-21" style="edgeStyle=orthogonalEdgeStyle;rounded=0;orthogonalLoop=1;jettySize=auto;html=1;entryX=0.5;entryY=0;entryDx=0;entryDy=0;" edge="1" parent="1" source="16HrUeYN3CQHbp1O-pJu-3" target="EawuYjx1w54RUcKtx6Do-17">
          <mxGeometry relative="1" as="geometry" />
        </mxCell>
        <mxCell id="EawuYjx1w54RUcKtx6Do-22" style="edgeStyle=orthogonalEdgeStyle;rounded=0;orthogonalLoop=1;jettySize=auto;html=1;entryX=0.5;entryY=0;entryDx=0;entryDy=0;" edge="1" parent="1" source="16HrUeYN3CQHbp1O-pJu-3" target="EawuYjx1w54RUcKtx6Do-18">
          <mxGeometry relative="1" as="geometry" />
        </mxCell>
        <mxCell id="EawuYjx1w54RUcKtx6Do-23" style="edgeStyle=orthogonalEdgeStyle;rounded=0;orthogonalLoop=1;jettySize=auto;html=1;entryX=0.5;entryY=0;entryDx=0;entryDy=0;" edge="1" parent="1" source="16HrUeYN3CQHbp1O-pJu-3" target="EawuYjx1w54RUcKtx6Do-19">
          <mxGeometry relative="1" as="geometry" />
        </mxCell>
        <mxCell id="16HrUeYN3CQHbp1O-pJu-3" value="&lt;span style=&quot;font-size: 18px;&quot;&gt;帖子管理子系统&lt;/span&gt;" style="rounded=0;whiteSpace=wrap;html=1;" parent="1" vertex="1">
          <mxGeometry x="388" y="182" width="186" height="45" as="geometry" />
        </mxCell>
        <mxCell id="EawuYjx1w54RUcKtx6Do-28" style="edgeStyle=orthogonalEdgeStyle;rounded=0;orthogonalLoop=1;jettySize=auto;html=1;entryX=0.5;entryY=0;entryDx=0;entryDy=0;" edge="1" parent="1" source="16HrUeYN3CQHbp1O-pJu-4" target="EawuYjx1w54RUcKtx6Do-25">
          <mxGeometry relative="1" as="geometry" />
        </mxCell>
        <mxCell id="EawuYjx1w54RUcKtx6Do-29" style="edgeStyle=orthogonalEdgeStyle;rounded=0;orthogonalLoop=1;jettySize=auto;html=1;entryX=0.5;entryY=0;entryDx=0;entryDy=0;" edge="1" parent="1" source="16HrUeYN3CQHbp1O-pJu-4" target="EawuYjx1w54RUcKtx6Do-26">
          <mxGeometry relative="1" as="geometry" />
        </mxCell>
        <mxCell id="EawuYjx1w54RUcKtx6Do-30" style="edgeStyle=orthogonalEdgeStyle;rounded=0;orthogonalLoop=1;jettySize=auto;html=1;entryX=0.5;entryY=0;entryDx=0;entryDy=0;" edge="1" parent="1" source="16HrUeYN3CQHbp1O-pJu-4" target="EawuYjx1w54RUcKtx6Do-27">
          <mxGeometry relative="1" as="geometry" />
        </mxCell>
        <mxCell id="16HrUeYN3CQHbp1O-pJu-4" value="&lt;span style=&quot;font-size: 18px;&quot;&gt;管理员子系统&lt;/span&gt;" style="rounded=0;whiteSpace=wrap;html=1;" parent="1" vertex="1">
          <mxGeometry x="633" y="182" width="186" height="45" as="geometry" />
        </mxCell>
        <mxCell id="EawuYjx1w54RUcKtx6Do-3" value="" style="endArrow=classic;html=1;rounded=0;exitX=0.5;exitY=1;exitDx=0;exitDy=0;entryX=0.5;entryY=0;entryDx=0;entryDy=0;" edge="1" parent="1" source="16HrUeYN3CQHbp1O-pJu-1" target="16HrUeYN3CQHbp1O-pJu-3">
          <mxGeometry width="50" height="50" relative="1" as="geometry">
            <mxPoint x="463" y="339" as="sourcePoint" />
            <mxPoint x="513" y="289" as="targetPoint" />
          </mxGeometry>
        </mxCell>
        <mxCell id="EawuYjx1w54RUcKtx6Do-7" value="&lt;font style=&quot;font-size: 18px;&quot;&gt;用户登录&lt;/font&gt;" style="rounded=0;whiteSpace=wrap;html=1;" vertex="1" parent="1">
          <mxGeometry x="104" y="306" width="54" height="114" as="geometry" />
        </mxCell>
        <mxCell id="EawuYjx1w54RUcKtx6Do-9" value="&lt;font style=&quot;font-size: 18px;&quot;&gt;用户注册&lt;/font&gt;" style="rounded=0;whiteSpace=wrap;html=1;" vertex="1" parent="1">
          <mxGeometry x="209" y="306" width="54" height="114" as="geometry" />
        </mxCell>
        <mxCell id="EawuYjx1w54RUcKtx6Do-10" value="&lt;span style=&quot;font-size: 18px;&quot;&gt;管理员登录&lt;/span&gt;" style="rounded=0;whiteSpace=wrap;html=1;" vertex="1" parent="1">
          <mxGeometry x="298" y="306" width="54" height="114" as="geometry" />
        </mxCell>
        <mxCell id="EawuYjx1w54RUcKtx6Do-16" value="&lt;span style=&quot;font-size: 18px;&quot;&gt;发布帖子&lt;/span&gt;" style="rounded=0;whiteSpace=wrap;html=1;" vertex="1" parent="1">
          <mxGeometry x="368" y="328" width="42" height="167" as="geometry" />
        </mxCell>
        <mxCell id="EawuYjx1w54RUcKtx6Do-17" value="&lt;span style=&quot;font-size: 18px;&quot;&gt;删除帖子&lt;/span&gt;" style="rounded=0;whiteSpace=wrap;html=1;" vertex="1" parent="1">
          <mxGeometry x="438" y="328" width="47" height="166" as="geometry" />
        </mxCell>
        <mxCell id="EawuYjx1w54RUcKtx6Do-18" value="&lt;span style=&quot;font-size: 18px;&quot;&gt;浏览帖子&lt;/span&gt;" style="rounded=0;whiteSpace=wrap;html=1;" vertex="1" parent="1">
          <mxGeometry x="504" y="328" width="50" height="166" as="geometry" />
        </mxCell>
        <mxCell id="EawuYjx1w54RUcKtx6Do-19" value="&lt;span style=&quot;font-size: 18px;&quot;&gt;评论帖子&lt;/span&gt;" style="rounded=0;whiteSpace=wrap;html=1;" vertex="1" parent="1">
          <mxGeometry x="574" y="328" width="49" height="163" as="geometry" />
        </mxCell>
        <mxCell id="EawuYjx1w54RUcKtx6Do-25" value="&lt;span style=&quot;font-size: 18px;&quot;&gt;板块管理&lt;/span&gt;" style="rounded=0;whiteSpace=wrap;html=1;" vertex="1" parent="1">
          <mxGeometry x="641" y="277" width="42" height="167" as="geometry" />
        </mxCell>
        <mxCell id="EawuYjx1w54RUcKtx6Do-26" value="&lt;span style=&quot;font-size: 18px;&quot;&gt;删除违规帖子&lt;/span&gt;" style="rounded=0;whiteSpace=wrap;html=1;" vertex="1" parent="1">
          <mxGeometry x="705" y="277" width="42" height="167" as="geometry" />
        </mxCell>
        <mxCell id="EawuYjx1w54RUcKtx6Do-27" value="&lt;span style=&quot;font-size: 18px;&quot;&gt;用户管理&lt;/span&gt;" style="rounded=0;whiteSpace=wrap;html=1;" vertex="1" parent="1">
          <mxGeometry x="769" y="277" width="42" height="167" as="geometry" />
        </mxCell>
      </root>
    </mxGraphModel>
  </diagram>
</mxfile>
